STARTFONT 2.1
FONT -Monotype-Century Gothic-Regular-I-Normal--18-180-72-72-P-90-iso8859-1
SIZE 18 72 72
FONTBOUNDINGBOX 21 23 -1 -4

STARTPROPERTIES 22
FOUNDRY "Monotype"
FAMILY_NAME "Century Gothic"
WEIGHT_NAME "Regular"
SLANT "I"
SETWIDTH_NAME "Normal"
ADD_STYLE_NAME ""
PIXEL_SIZE 18
POINT_SIZE 180
RESOLUTION_X 72
RESOLUTION_Y 72
SPACING "P"
AVERAGE_WIDTH 90
CHARSET_REGISTRY "iso8859"
CHARSET_ENCODING "1"
COPYRIGHT "Copyright (c) 1996 Monotype Typography Ltd."
CAP_HEIGHT 16
X_HEIGHT 12
WEIGHT 10
QUAD_WIDTH 13
DEFAULT_CHAR 32
FONT_DESCENT 4
FONT_ASCENT 19
ENDPROPERTIES

CHARS 191

STARTCHAR space
ENCODING 32
SWIDTH 277 0
DWIDTH 6 0
BBX 0 0 0 0
BITMAP
ENDCHAR

STARTCHAR exclam
ENCODING 33
SWIDTH 295 0
DWIDTH 6 0
BBX 4 14 1 0
BITMAP
10
10
10
10
20
20
20
20
40
40
40
00
C0
C0
ENDCHAR

STARTCHAR quotedbl
ENCODING 34
SWIDTH 309 0
DWIDTH 6 0
BBX 6 4 0 10
BITMAP
CC
CC
CC
CC
ENDCHAR

STARTCHAR numbersign
ENCODING 35
SWIDTH 720 0
DWIDTH 14 0
BBX 11 15 2 0
BITMAP
0880
0880
0880
0880
0880
7FE0
1100
1100
1100
FFC0
2200
2200
2200
2200
2200
ENDCHAR

STARTCHAR dollar
ENCODING 36
SWIDTH 554 0
DWIDTH 11 0
BBX 9 18 1 -3
BITMAP
0200
1F00
2580
4480
4400
2800
3800
1C00
0E00
0A00
1100
1100
9100
D200
7C00
2000
2000
2000
ENDCHAR

STARTCHAR percent
ENCODING 37
SWIDTH 775 0
DWIDTH 15 0
BBX 13 15 1 -1
BITMAP
38F0
4F20
8440
8480
C900
7100
0200
0400
0470
0898
1108
1108
2190
40E0
8000
ENDCHAR

STARTCHAR ampersand
ENCODING 38
SWIDTH 757 0
DWIDTH 14 0
BBX 12 13 1 0
BITMAP
0F00
1980
1080
1080
0900
0E00
3400
4200
8360
81C0
8140
C660
7C30
ENDCHAR

STARTCHAR quoteright
ENCODING 39
SWIDTH 351 0
DWIDTH 7 0
BBX 2 4 3 10
BITMAP
C0
C0
40
80
ENDCHAR

STARTCHAR parenleft
ENCODING 40
SWIDTH 369 0
DWIDTH 7 0
BBX 4 19 2 -4
BITMAP
10
10
20
20
40
40
40
80
80
80
80
80
80
80
80
80
40
40
20
ENDCHAR

STARTCHAR parenright
ENCODING 41
SWIDTH 369 0
DWIDTH 7 0
BBX 4 19 2 -4
BITMAP
40
20
20
10
10
10
10
10
10
10
10
10
20
20
20
40
40
80
80
ENDCHAR

STARTCHAR asterisk
ENCODING 42
SWIDTH 425 0
DWIDTH 8 0
BBX 6 7 1 7
BITMAP
20
A4
EC
30
DC
94
10
ENDCHAR

STARTCHAR plus
ENCODING 43
SWIDTH 606 0
DWIDTH 12 0
BBX 9 9 2 2
BITMAP
0800
0800
0800
0800
FF80
0800
0800
0800
0800
ENDCHAR

STARTCHAR comma
ENCODING 44
SWIDTH 277 0
DWIDTH 5 0
BBX 3 3 1 -1
BITMAP
60
60
C0
ENDCHAR

STARTCHAR minus
ENCODING 45
SWIDTH 606 0
DWIDTH 12 0
BBX 9 1 2 6
BITMAP
FF80
ENDCHAR

STARTCHAR period
ENCODING 46
SWIDTH 277 0
DWIDTH 5 0
BBX 2 2 2 0
BITMAP
C0
C0
ENDCHAR

STARTCHAR slash
ENCODING 47
SWIDTH 437 0
DWIDTH 8 0
BBX 7 16 1 -2
BITMAP
02
02
04
04
08
08
10
10
10
20
20
20
40
40
80
80
ENDCHAR

STARTCHAR zero
ENCODING 48
SWIDTH 554 0
DWIDTH 11 0
BBX 9 14 1 0
BITMAP
1E00
3100
6180
4080
C080
8080
8080
8080
8080
8180
8100
C300
4600
3C00
ENDCHAR

STARTCHAR one
ENCODING 49
SWIDTH 554 0
DWIDTH 11 0
BBX 3 14 4 0
BITMAP
E0
20
20
20
40
40
40
40
40
80
80
80
80
80
ENDCHAR

STARTCHAR two
ENCODING 50
SWIDTH 554 0
DWIDTH 11 0
BBX 9 14 1 0
BITMAP
0E00
1100
2080
2080
0080
0100
0200
0200
0400
0800
0800
1000
2000
FF00
ENDCHAR

STARTCHAR three
ENCODING 51
SWIDTH 554 0
DWIDTH 11 0
BBX 9 14 1 0
BITMAP
0E00
1100
2080
2080
0180
0300
0E00
0100
0080
0080
8080
8100
6300
3C00
ENDCHAR

STARTCHAR four
ENCODING 52
SWIDTH 554 0
DWIDTH 11 0
BBX 9 14 1 0
BITMAP
0080
0180
0280
0480
0900
0900
1100
1100
2100
4200
FF80
0200
0200
0200
ENDCHAR

STARTCHAR five
ENCODING 53
SWIDTH 554 0
DWIDTH 11 0
BBX 10 14 1 0
BITMAP
07C0
0400
0800
0800
1000
3C00
2300
0100
0080
0080
8080
4100
6300
1C00
ENDCHAR

STARTCHAR six
ENCODING 54
SWIDTH 554 0
DWIDTH 11 0
BBX 9 14 1 0
BITMAP
0300
0400
0800
1000
2000
2E00
7100
4080
8080
8080
8080
4100
6300
1C00
ENDCHAR

STARTCHAR seven
ENCODING 55
SWIDTH 554 0
DWIDTH 11 0
BBX 9 14 1 0
BITMAP
7F80
0100
0100
0200
0200
0400
0800
0800
1000
2000
2000
4000
8000
8000
ENDCHAR

STARTCHAR eight
ENCODING 56
SWIDTH 554 0
DWIDTH 11 0
BBX 9 14 1 0
BITMAP
0E00
1100
2080
2080
2080
1100
1F00
6100
4080
8080
8080
8100
4300
3C00
ENDCHAR

STARTCHAR nine
ENCODING 57
SWIDTH 554 0
DWIDTH 11 0
BBX 9 14 1 0
BITMAP
1C00
6300
4100
8080
8080
8080
8100
4700
3A00
0200
0400
0800
1000
6000
ENDCHAR

STARTCHAR colon
ENCODING 58
SWIDTH 277 0
DWIDTH 5 0
BBX 3 10 1 0
BITMAP
60
60
00
00
00
00
00
00
C0
C0
ENDCHAR

STARTCHAR semicolon
ENCODING 59
SWIDTH 277 0
DWIDTH 5 0
BBX 4 11 0 -1
BITMAP
30
30
00
00
00
00
00
00
60
60
C0
ENDCHAR

STARTCHAR less
ENCODING 60
SWIDTH 606 0
DWIDTH 12 0
BBX 11 10 1 2
BITMAP
0060
0180
0600
1800
6000
C000
3000
0C00
0300
0080
ENDCHAR

STARTCHAR equal
ENCODING 61
SWIDTH 606 0
DWIDTH 12 0
BBX 9 5 2 4
BITMAP
FF80
0000
0000
0000
FF80
ENDCHAR

STARTCHAR greater
ENCODING 62
SWIDTH 606 0
DWIDTH 12 0
BBX 11 10 1 2
BITMAP
2000
1800
0600
0180
0060
00C0
0300
0C00
3000
C000
ENDCHAR

STARTCHAR question
ENCODING 63
SWIDTH 591 0
DWIDTH 11 0
BBX 7 14 2 0
BITMAP
3C
46
82
82
04
18
60
80
84
C8
70
00
60
60
ENDCHAR

STARTCHAR at
ENCODING 64
SWIDTH 867 0
DWIDTH 16 0
BBX 14 15 1 0
BITMAP
0780
1860
2010
4008
43A8
8C64
8824
9024
9044
9048
48D0
4760
2008
1810
07E0
ENDCHAR

STARTCHAR A
ENCODING 65
SWIDTH 740 0
DWIDTH 14 0
BBX 13 14 1 0
BITMAP
0100
0300
0280
0680
0480
0C40
0840
1840
1FE0
2020
6030
4010
C018
8008
ENDCHAR

STARTCHAR B
ENCODING 66
SWIDTH 574 0
DWIDTH 11 0
BBX 9 14 1 0
BITMAP
3F00
2180
2080
2080
2100
4300
7E00
4300
4100
8080
8080
8180
8300
FC00
ENDCHAR

STARTCHAR C
ENCODING 67
SWIDTH 813 0
DWIDTH 15 0
BBX 13 14 1 0
BITMAP
07C0
1830
3018
6000
4000
8000
8000
8000
8000
8000
4000
6030
3060
0F80
ENDCHAR

STARTCHAR D
ENCODING 68
SWIDTH 744 0
DWIDTH 14 0
BBX 12 14 1 0
BITMAP
3F00
20C0
2060
2020
2010
4010
4010
4010
4010
8020
8060
80C0
8180
FE00
ENDCHAR

STARTCHAR E
ENCODING 69
SWIDTH 536 0
DWIDTH 10 0
BBX 10 14 0 0
BITMAP
3FC0
2000
2000
2000
2000
4000
7F80
4000
4000
4000
8000
8000
8000
FF00
ENDCHAR

STARTCHAR F
ENCODING 70
SWIDTH 485 0
DWIDTH 9 0
BBX 9 14 0 0
BITMAP
3F80
2000
2000
2000
2000
4000
7F00
4000
4000
4000
8000
8000
8000
8000
ENDCHAR

STARTCHAR G
ENCODING 71
SWIDTH 872 0
DWIDTH 17 0
BBX 14 14 2 0
BITMAP
07E0
1818
300C
6000
4000
8000
8000
80F8
8008
8008
4010
6030
3060
0F80
ENDCHAR

STARTCHAR H
ENCODING 72
SWIDTH 683 0
DWIDTH 13 0
BBX 11 14 1 0
BITMAP
2020
2020
2020
2020
2020
4040
7FC0
4040
4040
8080
8080
8080
8080
8080
ENDCHAR

STARTCHAR I
ENCODING 73
SWIDTH 226 0
DWIDTH 4 0
BBX 3 14 1 0
BITMAP
20
20
20
20
20
40
40
40
40
80
80
80
80
80
ENDCHAR

STARTCHAR J
ENCODING 74
SWIDTH 482 0
DWIDTH 9 0
BBX 8 14 1 0
BITMAP
01
01
01
01
01
02
02
02
02
04
04
04
CC
78
ENDCHAR

STARTCHAR K
ENCODING 75
SWIDTH 591 0
DWIDTH 11 0
BBX 10 14 1 0
BITMAP
20C0
2080
2300
2200
2C00
7800
4800
4C00
4400
4600
8200
8300
8180
8080
ENDCHAR

STARTCHAR L
ENCODING 76
SWIDTH 463 0
DWIDTH 9 0
BBX 7 14 1 0
BITMAP
20
20
20
20
40
40
40
40
40
40
80
80
80
FE
ENDCHAR

STARTCHAR M
ENCODING 77
SWIDTH 919 0
DWIDTH 17 0
BBX 15 14 1 0
BITMAP
0802
0802
0806
1C06
140A
140A
2612
2212
2222
4222
4142
4142
8082
8082
ENDCHAR

STARTCHAR N
ENCODING 78
SWIDTH 740 0
DWIDTH 14 0
BBX 13 14 1 0
BITMAP
2008
3008
3008
2808
2C08
4610
4210
4310
4190
80A0
8060
8060
8020
8020
ENDCHAR

STARTCHAR O
ENCODING 79
SWIDTH 869 0
DWIDTH 17 0
BBX 14 14 2 0
BITMAP
07C0
1830
3018
6008
4004
8004
8004
8004
8004
8008
4018
6030
3060
0F80
ENDCHAR

STARTCHAR P
ENCODING 80
SWIDTH 592 0
DWIDTH 11 0
BBX 10 14 1 0
BITMAP
3F00
2080
2040
2040
4080
4180
7E00
4000
4000
4000
8000
8000
8000
8000
ENDCHAR

STARTCHAR Q
ENCODING 81
SWIDTH 871 0
DWIDTH 17 0
BBX 14 14 2 0
BITMAP
07C0
1830
3018
6008
4004
8004
8004
8004
8004
80C8
4078
6030
3078
0F8C
ENDCHAR

STARTCHAR R
ENCODING 82
SWIDTH 607 0
DWIDTH 12 0
BBX 10 14 1 0
BITMAP
3F00
2080
2040
2040
2080
4180
7E00
4800
4400
8200
8300
8100
8080
80C0
ENDCHAR

STARTCHAR S
ENCODING 83
SWIDTH 498 0
DWIDTH 9 0
BBX 8 14 1 0
BITMAP
1E
23
41
40
20
30
18
0C
04
02
02
82
C4
78
ENDCHAR

STARTCHAR T
ENCODING 84
SWIDTH 426 0
DWIDTH 8 0
BBX 7 14 1 0
BITMAP
FE
10
10
10
10
20
20
20
20
20
40
40
40
40
ENDCHAR

STARTCHAR U
ENCODING 85
SWIDTH 655 0
DWIDTH 12 0
BBX 11 14 1 0
BITMAP
2020
2020
2020
2020
4040
4040
4040
4040
8040
8080
8080
4100
6300
1C00
ENDCHAR

STARTCHAR V
ENCODING 86
SWIDTH 702 0
DWIDTH 13 0
BBX 12 14 1 0
BITMAP
8010
C010
4020
4020
6040
2040
2080
3100
1100
1200
1A00
0C00
0800
0800
ENDCHAR

STARTCHAR W
ENCODING 87
SWIDTH 960 0
DWIDTH 18 0
BBX 18 14 0 0
BITMAP
8080C0
C08080
408180
414100
414300
424200
624600
246400
242C00
282800
282800
303000
101000
101000
ENDCHAR

STARTCHAR X
ENCODING 88
SWIDTH 609 0
DWIDTH 12 0
BBX 10 14 1 0
BITMAP
4040
6040
2080
3180
1100
1A00
0C00
0C00
1600
2200
6300
4100
8180
8080
ENDCHAR

STARTCHAR Y
ENCODING 89
SWIDTH 592 0
DWIDTH 11 0
BBX 9 14 1 0
BITMAP
8080
C080
4100
6300
2200
3400
1800
1800
1000
1000
2000
2000
2000
2000
ENDCHAR

STARTCHAR Z
ENCODING 90
SWIDTH 480 0
DWIDTH 9 0
BBX 9 14 0 0
BITMAP
3F80
0100
0300
0200
0600
0400
0C00
0800
1800
1000
3000
6000
4000
FE00
ENDCHAR

STARTCHAR bracketleft
ENCODING 91
SWIDTH 351 0
DWIDTH 7 0
BBX 6 18 1 -4
BITMAP
1C
10
10
10
20
20
20
20
20
40
40
40
40
40
80
80
80
C0
ENDCHAR

STARTCHAR backslash
ENCODING 92
SWIDTH 605 0
DWIDTH 11 0
BBX 10 16 1 -2
BITMAP
8000
8000
4000
4000
2000
1000
1000
0800
0400
0400
0200
0100
0100
0080
0040
0040
ENDCHAR

STARTCHAR bracketright
ENCODING 93
SWIDTH 351 0
DWIDTH 7 0
BBX 6 18 1 -4
BITMAP
1C
04
04
04
08
08
08
08
08
10
10
10
10
10
20
20
20
E0
ENDCHAR

STARTCHAR asciicircum
ENCODING 94
SWIDTH 672 0
DWIDTH 13 0
BBX 11 11 1 3
BITMAP
0400
0400
0A00
0A00
1100
1100
2080
2080
4040
4040
8020
ENDCHAR

STARTCHAR underscore
ENCODING 95
SWIDTH 500 0
DWIDTH 10 0
BBX 10 1 0 -2
BITMAP
FFC0
ENDCHAR

STARTCHAR quoteleft
ENCODING 96
SWIDTH 351 0
DWIDTH 7 0
BBX 2 4 3 10
BITMAP
40
80
C0
C0
ENDCHAR

STARTCHAR a
ENCODING 97
SWIDTH 683 0
DWIDTH 13 0
BBX 11 10 1 0
BITMAP
0FA0
30A0
6060
4060
8060
8040
8040
40C0
61C0
1E40
ENDCHAR

STARTCHAR b
ENCODING 98
SWIDTH 682 0
DWIDTH 13 0
BBX 11 14 1 0
BITMAP
2000
2000
2000
2000
4F00
70C0
6040
4020
4020
8020
8040
C0C0
E180
9E00
ENDCHAR

STARTCHAR c
ENCODING 99
SWIDTH 647 0
DWIDTH 12 0
BBX 10 10 1 0
BITMAP
0F00
30C0
6040
4000
8000
8000
8000
4080
6180
1E00
ENDCHAR

STARTCHAR d
ENCODING 100
SWIDTH 685 0
DWIDTH 13 0
BBX 12 14 1 0
BITMAP
0010
0010
0010
0010
0F20
30E0
6060
4020
8020
8020
8040
40C0
61C0
1E40
ENDCHAR

STARTCHAR e
ENCODING 101
SWIDTH 650 0
DWIDTH 12 0
BBX 11 10 1 0
BITMAP
0F00
30C0
6040
4020
FFE0
8000
8000
4080
6180
1E00
ENDCHAR

STARTCHAR f
ENCODING 102
SWIDTH 314 0
DWIDTH 6 0
BBX 5 14 1 0
BITMAP
18
20
20
20
F8
40
40
40
40
80
80
80
80
80
ENDCHAR

STARTCHAR g
ENCODING 103
SWIDTH 673 0
DWIDTH 13 0
BBX 11 14 1 -4
BITMAP
0F20
30E0
6060
4020
8020
8040
8040
40C0
61C0
1E40
0080
8180
C300
3C00
ENDCHAR

STARTCHAR h
ENCODING 104
SWIDTH 610 0
DWIDTH 12 0
BBX 10 14 1 0
BITMAP
2000
2000
2000
2000
4F80
70C0
6040
4040
4040
8080
8080
8080
8080
8080
ENDCHAR

STARTCHAR i
ENCODING 105
SWIDTH 200 0
DWIDTH 4 0
BBX 3 14 1 0
BITMAP
60
60
00
00
40
40
40
40
40
80
80
80
80
80
ENDCHAR

STARTCHAR j
ENCODING 106
SWIDTH 203 0
DWIDTH 4 0
BBX 5 18 0 -4
BITMAP
18
18
00
00
10
10
10
10
10
20
20
20
20
20
20
20
40
C0
ENDCHAR

STARTCHAR k
ENCODING 107
SWIDTH 502 0
DWIDTH 10 0
BBX 9 14 1 0
BITMAP
2000
2000
2000
2000
4180
4300
4C00
5800
7000
9800
8C00
8600
8300
8180
ENDCHAR

STARTCHAR l
ENCODING 108
SWIDTH 200 0
DWIDTH 4 0
BBX 3 14 1 0
BITMAP
20
20
20
20
40
40
40
40
40
80
80
80
80
80
ENDCHAR

STARTCHAR m
ENCODING 109
SWIDTH 938 0
DWIDTH 18 0
BBX 16 10 1 0
BITMAP
4F1E
71E3
60C1
4081
4081
8102
8102
8102
8102
8102
ENDCHAR

STARTCHAR n
ENCODING 110
SWIDTH 610 0
DWIDTH 12 0
BBX 10 10 1 0
BITMAP
4F80
70C0
6040
4040
4040
8080
8080
8080
8080
8080
ENDCHAR

STARTCHAR o
ENCODING 111
SWIDTH 655 0
DWIDTH 12 0
BBX 11 10 1 0
BITMAP
0F00
30C0
6040
4020
8020
8020
8040
40C0
6180
1E00
ENDCHAR

STARTCHAR p
ENCODING 112
SWIDTH 682 0
DWIDTH 13 0
BBX 12 14 1 -4
BITMAP
2780
3860
3020
2010
2010
4010
4020
6060
70C0
4F00
8000
8000
8000
8000
ENDCHAR

STARTCHAR q
ENCODING 113
SWIDTH 682 0
DWIDTH 13 0
BBX 11 14 1 -4
BITMAP
0F20
30E0
6060
4020
8020
8040
8040
40C0
61C0
1E40
0080
0080
0080
0080
ENDCHAR

STARTCHAR r
ENCODING 114
SWIDTH 301 0
DWIDTH 6 0
BBX 6 10 0 0
BITMAP
4C
70
60
40
40
80
80
80
80
80
ENDCHAR

STARTCHAR s
ENCODING 115
SWIDTH 388 0
DWIDTH 7 0
BBX 7 10 0 0
BITMAP
1C
32
20
30
18
08
04
04
8C
78
ENDCHAR

STARTCHAR t
ENCODING 116
SWIDTH 339 0
DWIDTH 6 0
BBX 5 14 1 0
BITMAP
20
20
20
20
F8
40
40
40
40
80
80
80
80
80
ENDCHAR

STARTCHAR u
ENCODING 117
SWIDTH 608 0
DWIDTH 12 0
BBX 9 10 2 0
BITMAP
4080
4080
4080
4080
8100
8100
8100
8100
4200
3C00
ENDCHAR

STARTCHAR v
ENCODING 118
SWIDTH 554 0
DWIDTH 11 0
BBX 9 10 1 0
BITMAP
8080
8100
8100
4200
4200
2400
2400
3800
1000
1000
ENDCHAR

STARTCHAR w
ENCODING 119
SWIDTH 831 0
DWIDTH 16 0
BBX 14 10 1 0
BITMAP
8104
8104
4308
4308
4490
2490
28A0
1860
1040
1040
ENDCHAR

STARTCHAR x
ENCODING 120
SWIDTH 480 0
DWIDTH 9 0
BBX 8 10 1 0
BITMAP
61
21
22
14
18
18
28
44
84
86
ENDCHAR

STARTCHAR y
ENCODING 121
SWIDTH 536 0
DWIDTH 10 0
BBX 9 14 1 -4
BITMAP
8080
8100
8100
4200
4200
2400
2400
3800
1000
3000
2000
4000
C000
8000
ENDCHAR

STARTCHAR z
ENCODING 122
SWIDTH 425 0
DWIDTH 8 0
BBX 8 10 0 0
BITMAP
7F
02
04
04
08
10
10
20
40
FE
ENDCHAR

STARTCHAR braceleft
ENCODING 123
SWIDTH 351 0
DWIDTH 7 0
BBX 7 17 0 -3
BITMAP
0E
18
10
10
10
20
20
60
C0
40
20
20
20
20
20
30
1C
ENDCHAR

STARTCHAR bar
ENCODING 124
SWIDTH 672 0
DWIDTH 13 0
BBX 1 18 6 -4
BITMAP
80
80
80
80
80
80
80
80
80
80
80
80
80
80
80
80
80
80
ENDCHAR

STARTCHAR braceright
ENCODING 125
SWIDTH 351 0
DWIDTH 7 0
BBX 7 17 0 -3
BITMAP
70
18
08
08
08
08
08
04
06
0C
08
08
10
10
10
30
E0
ENDCHAR

STARTCHAR asciitilde
ENCODING 126
SWIDTH 606 0
DWIDTH 12 0
BBX 10 3 1 5
BITMAP
7040
DCC0
8780
ENDCHAR

STARTCHAR space
ENCODING 160
SWIDTH 277 0
DWIDTH 5 0
BBX 0 0 0 0
BITMAP
ENDCHAR

STARTCHAR exclamdown
ENCODING 161
SWIDTH 295 0
DWIDTH 6 0
BBX 4 15 1 -4
BITMAP
30
30
00
20
20
20
20
40
40
40
40
80
80
80
80
ENDCHAR

STARTCHAR cent
ENCODING 162
SWIDTH 554 0
DWIDTH 11 0
BBX 11 14 0 -2
BITMAP
0060
0040
0780
1960
3120
2200
4600
4400
4800
2840
30C0
2F00
4000
C000
ENDCHAR

STARTCHAR sterling
ENCODING 163
SWIDTH 554 0
DWIDTH 11 0
BBX 11 14 0 0
BITMAP
03C0
0660
0420
0400
0400
0400
3F00
0800
0800
0800
6880
9880
DD80
6700
ENDCHAR

STARTCHAR currency
ENCODING 164
SWIDTH 554 0
DWIDTH 11 0
BBX 9 9 1 2
BITMAP
9C80
6300
4100
8080
8080
8080
4100
6300
9C80
ENDCHAR

STARTCHAR yen
ENCODING 165
SWIDTH 554 0
DWIDTH 11 0
BBX 11 14 0 0
BITMAP
6060
20C0
3180
1100
1B00
0E00
0C00
7F80
0800
0800
FF80
0800
0800
1800
ENDCHAR

STARTCHAR brokenbar
ENCODING 166
SWIDTH 672 0
DWIDTH 13 0
BBX 1 18 6 -4
BITMAP
80
80
80
80
80
80
00
00
00
00
00
00
80
80
80
80
80
80
ENDCHAR

STARTCHAR section
ENCODING 167
SWIDTH 615 0
DWIDTH 12 0
BBX 10 18 1 -4
BITMAP
0780
08C0
1040
1000
0800
1C00
2600
4100
4080
4080
2080
1900
0E00
0400
0200
8200
C400
7800
ENDCHAR

STARTCHAR dieresis
ENCODING 168
SWIDTH 369 0
DWIDTH 7 0
BBX 6 2 1 12
BITMAP
CC
CC
ENDCHAR

STARTCHAR copyright
ENCODING 169
SWIDTH 747 0
DWIDTH 14 0
BBX 14 14 0 0
BITMAP
07C0
1830
2018
67C8
4C44
9844
9004
9004
904C
9888
4F10
4030
30C0
0F00
ENDCHAR

STARTCHAR ordfeminine
ENCODING 170
SWIDTH 369 0
DWIDTH 7 0
BBX 6 7 1 7
BITMAP
34
4C
84
84
88
C8
74
ENDCHAR

STARTCHAR guillemotleft
ENCODING 171
SWIDTH 425 0
DWIDTH 8 0
BBX 9 10 0 0
BITMAP
1980
1100
2200
2200
4400
8800
4400
4400
2200
2200
ENDCHAR

STARTCHAR logicalnot
ENCODING 172
SWIDTH 606 0
DWIDTH 12 0
BBX 9 5 1 4
BITMAP
FF80
0080
0080
0080
0080
ENDCHAR

STARTCHAR hyphen
ENCODING 173
SWIDTH 332 0
DWIDTH 6 0
BBX 5 1 1 5
BITMAP
F8
ENDCHAR

STARTCHAR registered
ENCODING 174
SWIDTH 747 0
DWIDTH 14 0
BBX 14 14 0 0
BITMAP
03E0
0C10
3008
27E4
4464
4424
8C64
8FC4
8C44
8848
C848
4010
3060
0F80
ENDCHAR

STARTCHAR macron
ENCODING 175
SWIDTH 485 0
DWIDTH 9 0
BBX 7 1 2 13
BITMAP
FE
ENDCHAR

STARTCHAR degree
ENCODING 176
SWIDTH 400 0
DWIDTH 8 0
BBX 6 6 1 8
BITMAP
38
44
84
84
C8
70
ENDCHAR

STARTCHAR plusminus
ENCODING 177
SWIDTH 606 0
DWIDTH 12 0
BBX 9 12 2 0
BITMAP
0800
0800
0800
0800
FF80
0800
0800
0800
0800
0000
0000
FF80
ENDCHAR

STARTCHAR twosuperior
ENCODING 178
SWIDTH 332 0
DWIDTH 6 0
BBX 6 7 0 7
BITMAP
38
44
04
08
10
20
F8
ENDCHAR

STARTCHAR threesuperior
ENCODING 179
SWIDTH 332 0
DWIDTH 6 0
BBX 6 7 0 7
BITMAP
38
44
04
18
08
88
70
ENDCHAR

STARTCHAR acute
ENCODING 180
SWIDTH 375 0
DWIDTH 7 0
BBX 4 3 3 12
BITMAP
30
60
C0
ENDCHAR

STARTCHAR mu
ENCODING 181
SWIDTH 608 0
DWIDTH 12 0
BBX 10 14 1 -4
BITMAP
2040
2040
2040
2040
2040
4080
4080
6180
7380
4E80
8000
8000
8000
8000
ENDCHAR

STARTCHAR paragraph
ENCODING 182
SWIDTH 564 0
DWIDTH 11 0
BBX 9 16 1 -2
BITMAP
3F80
7900
F900
F900
F900
F900
7900
1900
0900
0900
0900
0900
0900
0900
0900
0900
ENDCHAR

STARTCHAR periodcentered
ENCODING 183
SWIDTH 277 0
DWIDTH 5 0
BBX 2 2 1 6
BITMAP
C0
C0
ENDCHAR

STARTCHAR cedilla
ENCODING 184
SWIDTH 324 0
DWIDTH 6 0
BBX 4 4 -1 -4
BITMAP
20
30
10
E0
ENDCHAR

STARTCHAR onesuperior
ENCODING 185
SWIDTH 332 0
DWIDTH 6 0
BBX 3 7 2 7
BITMAP
20
E0
20
20
40
40
40
ENDCHAR

STARTCHAR ordmasculine
ENCODING 186
SWIDTH 369 0
DWIDTH 7 0
BBX 6 7 1 7
BITMAP
38
4C
84
84
84
C8
70
ENDCHAR

STARTCHAR guillemotright
ENCODING 187
SWIDTH 425 0
DWIDTH 8 0
BBX 9 10 0 0
BITMAP
2200
2200
1100
1100
0880
1100
2200
2200
4400
CC00
ENDCHAR

STARTCHAR onequarter
ENCODING 188
SWIDTH 831 0
DWIDTH 16 0
BBX 13 14 2 0
BITMAP
2020
E040
2080
2080
4100
4100
4208
0418
0428
0848
1090
11F8
2010
4010
ENDCHAR

STARTCHAR onehalf
ENCODING 189
SWIDTH 831 0
DWIDTH 16 0
BBX 13 14 2 0
BITMAP
2020
E040
2080
2080
4100
4100
4200
0470
0488
0808
1010
1020
2040
41F0
ENDCHAR

STARTCHAR threequarters
ENCODING 190
SWIDTH 831 0
DWIDTH 16 0
BBX 14 14 1 0
BITMAP
3810
4420
0440
1840
0880
8880
7104
020C
0214
0424
0848
08FC
1008
2008
ENDCHAR

STARTCHAR questiondown
ENCODING 191
SWIDTH 591 0
DWIDTH 11 0
BBX 7 14 1 -4
BITMAP
0C
0C
00
1C
26
42
02
0C
30
40
82
82
C4
78
ENDCHAR

STARTCHAR Agrave
ENCODING 192
SWIDTH 740 0
DWIDTH 14 0
BBX 13 18 1 0
BITMAP
0300
0180
00C0
0000
0100
0300
0280
0680
0480
0C40
0840
1840
1FE0
2020
6030
4010
C018
8008
ENDCHAR

STARTCHAR Aacute
ENCODING 193
SWIDTH 740 0
DWIDTH 14 0
BBX 13 18 1 0
BITMAP
0060
00C0
0180
0000
0100
0300
0280
0680
0480
0C40
0840
1840
1FE0
2020
6030
4010
C018
8008
ENDCHAR

STARTCHAR Acircumflex
ENCODING 194
SWIDTH 740 0
DWIDTH 14 0
BBX 13 17 1 0
BITMAP
0380
0E60
0000
0100
0100
0280
0680
0480
0C40
0840
1840
1FE0
2020
6030
4010
C018
8008
ENDCHAR

STARTCHAR Atilde
ENCODING 195
SWIDTH 740 0
DWIDTH 14 0
BBX 13 17 1 0
BITMAP
0720
05E0
0000
0100
0100
0280
0680
0480
0C40
0840
1840
1FE0
2020
6030
4010
C018
8008
ENDCHAR

STARTCHAR Adieresis
ENCODING 196
SWIDTH 740 0
DWIDTH 14 0
BBX 13 17 1 0
BITMAP
0660
0660
0000
0100
0100
0280
0680
0480
0C40
0840
1840
1FE0
2020
6030
4010
C018
8008
ENDCHAR

STARTCHAR Aring
ENCODING 197
SWIDTH 740 0
DWIDTH 14 0
BBX 13 19 1 0
BITMAP
0300
0480
0480
0300
0000
0100
0100
0280
0680
0480
0C40
0840
1840
1FE0
2020
6030
4010
C018
8008
ENDCHAR

STARTCHAR AE
ENCODING 198
SWIDTH 992 0
DWIDTH 19 0
BBX 18 14 1 0
BITMAP
007FC0
00E000
00A000
012000
032000
022000
047F80
0C6000
0FE000
104000
304000
604000
404000
C0FF00
ENDCHAR

STARTCHAR Ccedilla
ENCODING 199
SWIDTH 813 0
DWIDTH 15 0
BBX 13 17 1 -3
BITMAP
0FE0
1C38
3008
6000
C000
C000
8000
8000
8000
8000
C000
6010
30F0
1FC0
0400
0200
1C00
ENDCHAR

STARTCHAR Egrave
ENCODING 200
SWIDTH 536 0
DWIDTH 10 0
BBX 10 18 0 0
BITMAP
0C00
0600
0300
0000
3FC0
2000
2000
2000
2000
4000
7F80
4000
4000
4000
8000
8000
8000
FF00
ENDCHAR

STARTCHAR Eacute
ENCODING 201
SWIDTH 536 0
DWIDTH 10 0
BBX 10 18 0 0
BITMAP
0180
0300
0600
0000
3FC0
2000
2000
2000
2000
4000
7F80
4000
4000
4000
8000
8000
8000
FF00
ENDCHAR

STARTCHAR Ecircumflex
ENCODING 202
SWIDTH 536 0
DWIDTH 10 0
BBX 10 17 0 0
BITMAP
0700
1CC0
0000
3FC0
2000
2000
2000
2000
4000
7F80
4000
4000
4000
8000
8000
8000
FF00
ENDCHAR

STARTCHAR Edieresis
ENCODING 203
SWIDTH 536 0
DWIDTH 10 0
BBX 10 17 0 0
BITMAP
0D80
0D80
0000
3FC0
2000
2000
2000
2000
4000
7F80
4000
4000
4000
8000
8000
8000
FF00
ENDCHAR

STARTCHAR Igrave
ENCODING 204
SWIDTH 226 0
DWIDTH 4 0
BBX 4 18 1 0
BITMAP
C0
60
30
00
20
20
20
20
20
40
40
40
40
80
80
80
80
80
ENDCHAR

STARTCHAR Iacute
ENCODING 205
SWIDTH 226 0
DWIDTH 4 0
BBX 5 18 1 0
BITMAP
18
30
60
00
20
20
20
20
20
40
40
40
40
80
80
80
80
80
ENDCHAR

STARTCHAR Icircumflex
ENCODING 206
SWIDTH 226 0
DWIDTH 4 0
BBX 7 17 0 0
BITMAP
38
E6
00
10
10
10
10
10
20
20
20
20
40
40
40
40
40
ENDCHAR

STARTCHAR Idieresis
ENCODING 207
SWIDTH 226 0
DWIDTH 4 0
BBX 6 17 0 0
BITMAP
CC
CC
00
10
10
10
10
10
20
20
20
20
40
40
40
40
40
ENDCHAR

STARTCHAR Eth
ENCODING 208
SWIDTH 790 0
DWIDTH 14 0
BBX 13 14 0 0
BITMAP
1F80
1060
1030
1010
1008
2008
2008
FE08
2008
4010
4030
4060
40C0
7F00
ENDCHAR

STARTCHAR Ntilde
ENCODING 209
SWIDTH 740 0
DWIDTH 14 0
BBX 13 17 1 0
BITMAP
0E40
0BC0
0000
2008
3008
3008
2808
2C08
4610
4210
4310
4190
80A0
8060
8060
8020
8020
ENDCHAR

STARTCHAR Ograve
ENCODING 210
SWIDTH 869 0
DWIDTH 17 0
BBX 14 18 1 0
BITMAP
0300
0180
00C0
0000
07E0
1830
3018
600C
C004
C004
8004
8004
800C
C00C
C018
6030
30E0
1F80
ENDCHAR

STARTCHAR Oacute
ENCODING 211
SWIDTH 869 0
DWIDTH 17 0
BBX 14 18 2 0
BITMAP
0060
00C0
0180
0000
07E0
1830
3018
600C
C004
C004
8004
8004
800C
C00C
C018
6030
30E0
1F80
ENDCHAR

STARTCHAR Ocircumflex
ENCODING 212
SWIDTH 869 0
DWIDTH 17 0
BBX 14 17 2 0
BITMAP
01C0
0730
0000
07E0
1830
3018
600C
C004
C004
8004
8004
800C
C00C
C018
6030
30E0
1F80
ENDCHAR

STARTCHAR Otilde
ENCODING 213
SWIDTH 869 0
DWIDTH 17 0
BBX 14 17 2 0
BITMAP
0390
02F0
0000
07E0
1830
3018
600C
C004
C004
8004
8004
800C
C00C
C018
6030
30E0
1F80
ENDCHAR

STARTCHAR Odieresis
ENCODING 214
SWIDTH 869 0
DWIDTH 17 0
BBX 14 17 2 0
BITMAP
0660
0660
0000
07E0
1830
3018
600C
C004
C004
8004
8004
800C
C00C
C018
6030
30E0
1F80
ENDCHAR

STARTCHAR multiply
ENCODING 215
SWIDTH 606 0
DWIDTH 12 0
BBX 9 8 1 3
BITMAP
2080
6100
3200
0C00
1C00
3600
6200
C300
ENDCHAR

STARTCHAR Oslash
ENCODING 216
SWIDTH 868 0
DWIDTH 16 0
BBX 14 15 1 -1
BITMAP
07EC
1818
3038
606C
C0C4
C084
8104
8304
860C
CC0C
D818
7030
30E0
5F80
4000
ENDCHAR

STARTCHAR Ugrave
ENCODING 217
SWIDTH 655 0
DWIDTH 12 0
BBX 11 18 1 0
BITMAP
0C00
0600
0300
0000
2020
2020
2020
2020
4040
4040
4040
4040
8040
8080
8080
4100
6300
1C00
ENDCHAR

STARTCHAR Uacute
ENCODING 218
SWIDTH 655 0
DWIDTH 12 0
BBX 11 18 1 0
BITMAP
0300
0600
0C00
0000
2020
2020
2020
2020
4040
4040
4040
4040
8040
8080
8080
4100
6300
1C00
ENDCHAR

STARTCHAR Ucircumflex
ENCODING 219
SWIDTH 655 0
DWIDTH 12 0
BBX 11 17 1 0
BITMAP
0700
1CC0
0000
2020
2020
2020
2020
4040
4040
4040
4040
8040
8080
8080
4100
6300
1C00
ENDCHAR

STARTCHAR Udieresis
ENCODING 220
SWIDTH 655 0
DWIDTH 12 0
BBX 11 17 1 0
BITMAP
0CC0
0CC0
0000
2020
2020
2020
2020
4040
4040
4040
4040
8040
8080
8080
4100
6300
1C00
ENDCHAR

STARTCHAR Yacute
ENCODING 221
SWIDTH 592 0
DWIDTH 11 0
BBX 9 18 1 0
BITMAP
0180
0300
0600
0000
8080
C080
4100
6300
2200
3400
1800
1800
1000
1000
2000
2000
2000
2000
ENDCHAR

STARTCHAR Thorn
ENCODING 222
SWIDTH 592 0
DWIDTH 13 0
BBX 12 16 1 -4
BITMAP
2000
2000
2780
3860
3020
2010
2010
4010
4020
6060
70C0
4F00
8000
8000
8000
8000
ENDCHAR

STARTCHAR germandbls
ENCODING 223
SWIDTH 554 0
DWIDTH 11 0
BBX 9 14 0 0
BITMAP
0F00
1980
3080
2080
2180
6700
6600
4100
4080
4080
4080
4180
D300
DE00
ENDCHAR

STARTCHAR agrave
ENCODING 224
SWIDTH 683 0
DWIDTH 13 0
BBX 11 15 1 0
BITMAP
0C00
0600
0300
0000
0000
1F20
30A0
4060
C060
8040
8040
8040
C0C0
6140
3EC0
ENDCHAR

STARTCHAR aacute
ENCODING 225
SWIDTH 683 0
DWIDTH 13 0
BBX 11 15 1 0
BITMAP
0180
0300
0600
0000
0000
1F20
30A0
4060
C060
8040
8040
8040
C0C0
6140
3EC0
ENDCHAR

STARTCHAR acircumflex
ENCODING 226
SWIDTH 683 0
DWIDTH 13 0
BBX 11 14 1 0
BITMAP
0700
1CC0
0000
0000
1F20
30A0
4060
C060
8040
8040
8040
C0C0
6140
3EC0
ENDCHAR

STARTCHAR atilde
ENCODING 227
SWIDTH 683 0
DWIDTH 13 0
BBX 11 14 1 0
BITMAP
1C80
1780
0000
0000
1F20
30A0
4060
C060
8040
8040
8040
C0C0
6140
3EC0
ENDCHAR

STARTCHAR adieresis
ENCODING 228
SWIDTH 683 0
DWIDTH 13 0
BBX 11 14 1 0
BITMAP
1980
1980
0000
0000
1F20
30A0
4060
C060
8040
8040
8040
C0C0
6140
3EC0
ENDCHAR

STARTCHAR aring
ENCODING 229
SWIDTH 683 0
DWIDTH 13 0
BBX 11 15 1 0
BITMAP
0C00
1200
1200
0C00
0000
1F20
30A0
4060
C060
8040
8040
8040
C0C0
6140
3EC0
ENDCHAR

STARTCHAR ae
ENCODING 230
SWIDTH 1157 0
DWIDTH 22 0
BBX 20 10 0 0
BITMAP
1FB7C0
30EC60
407010
C02010
803FF0
802000
806000
C0F020
61D8E0
3E4F80
ENDCHAR

STARTCHAR ccedilla
ENCODING 231
SWIDTH 647 0
DWIDTH 12 0
BBX 10 13 1 -3
BITMAP
1F80
30C0
4040
C000
8000
8000
8000
C040
6180
3F00
0800
0400
3800
ENDCHAR

STARTCHAR egrave
ENCODING 232
SWIDTH 650 0
DWIDTH 12 0
BBX 10 15 1 0
BITMAP
0C00
0600
0300
0000
0000
1F00
3180
40C0
8040
FFC0
8000
8000
C080
6380
3E00
ENDCHAR

STARTCHAR eacute
ENCODING 233
SWIDTH 650 0
DWIDTH 12 0
BBX 10 15 1 0
BITMAP
0180
0300
0600
0000
0000
1F00
3180
40C0
8040
FFC0
8000
8000
C080
6380
3E00
ENDCHAR

STARTCHAR ecircumflex
ENCODING 234
SWIDTH 650 0
DWIDTH 12 0
BBX 10 14 1 0
BITMAP
0E00
3980
0000
0000
1F00
3180
40C0
8040
FFC0
8000
8000
C080
6380
3E00
ENDCHAR

STARTCHAR edieresis
ENCODING 235
SWIDTH 650 0
DWIDTH 12 0
BBX 10 14 1 0
BITMAP
1980
1980
0000
0000
1F00
3180
40C0
8040
FFC0
8000
8000
C080
6380
3E00
ENDCHAR

STARTCHAR igrave
ENCODING 236
SWIDTH 200 0
DWIDTH 4 0
BBX 4 15 0 0
BITMAP
C0
60
30
00
00
20
20
20
20
20
40
40
40
40
40
ENDCHAR

STARTCHAR iacute
ENCODING 237
SWIDTH 200 0
DWIDTH 4 0
BBX 4 15 1 0
BITMAP
30
60
C0
00
00
40
40
40
40
40
80
80
80
80
80
ENDCHAR

STARTCHAR icircumflex
ENCODING 238
SWIDTH 200 0
DWIDTH 4 0
BBX 7 14 -1 0
BITMAP
38
E6
00
00
10
10
10
10
10
20
20
20
20
20
ENDCHAR

STARTCHAR idieresis
ENCODING 239
SWIDTH 200 0
DWIDTH 4 0
BBX 6 14 -1 0
BITMAP
CC
CC
00
00
10
10
10
10
10
20
20
20
20
20
ENDCHAR

STARTCHAR eth
ENCODING 240
SWIDTH 655 0
DWIDTH 12 0
BBX 10 14 1 0
BITMAP
0C80
0700
0D00
0180
1F80
31C0
40C0
C040
8040
8040
80C0
C080
6300
3E00
ENDCHAR

STARTCHAR ntilde
ENCODING 241
SWIDTH 610 0
DWIDTH 12 0
BBX 10 14 1 0
BITMAP
1C80
1780
0000
0000
4F80
70C0
6040
4040
4040
8080
8080
8080
8080
8080
ENDCHAR

STARTCHAR ograve
ENCODING 242
SWIDTH 655 0
DWIDTH 12 0
BBX 11 15 1 0
BITMAP
0C00
0600
0300
0000
0000
0F00
30C0
6040
4020
8020
8020
8040
40C0
6180
1E00
ENDCHAR

STARTCHAR oacute
ENCODING 243
SWIDTH 655 0
DWIDTH 12 0
BBX 11 15 1 0
BITMAP
0180
0300
0600
0000
0000
0F00
30C0
6040
4020
8020
8020
8040
40C0
6180
1E00
ENDCHAR

STARTCHAR ocircumflex
ENCODING 244
SWIDTH 655 0
DWIDTH 12 0
BBX 11 14 1 0
BITMAP
0E00
3980
0000
0000
0F00
30C0
6040
4020
8020
8020
8040
40C0
6180
1E00
ENDCHAR

STARTCHAR otilde
ENCODING 245
SWIDTH 655 0
DWIDTH 12 0
BBX 11 14 1 0
BITMAP
1C80
1780
0000
0000
0F00
3180
60C0
4020
8020
8020
8040
40C0
6180
1E00
ENDCHAR

STARTCHAR odieresis
ENCODING 246
SWIDTH 655 0
DWIDTH 12 0
BBX 11 14 1 0
BITMAP
1980
1980
0000
0000
0F00
30C0
6040
4020
8020
8020
8040
C0C0
6180
1E00
ENDCHAR

STARTCHAR divide
ENCODING 247
SWIDTH 606 0
DWIDTH 10 0
BBX 10 9 0 2
BITMAP
0600
0C00
0000
0000
FFC0
0000
0000
0C00
1800
ENDCHAR

STARTCHAR oslash
ENCODING 248
SWIDTH 653 0
DWIDTH 12 0
BBX 10 12 1 -1
BITMAP
0040
1FC0
3180
41C0
C240
8640
8C40
98C0
F080
6380
FE00
8000
ENDCHAR

STARTCHAR ugrave
ENCODING 249
SWIDTH 608 0
DWIDTH 12 0
BBX 9 15 1 0
BITMAP
1800
0C00
0600
0000
0000
4080
4080
4080
4080
8100
8100
8100
8100
4200
3C00
ENDCHAR

STARTCHAR uacute
ENCODING 250
SWIDTH 608 0
DWIDTH 12 0
BBX 9 15 1 0
BITMAP
0300
0600
0C00
0000
0000
4080
4080
4080
4080
8100
8100
8100
8100
4200
3C00
ENDCHAR

STARTCHAR ucircumflex
ENCODING 251
SWIDTH 608 0
DWIDTH 12 0
BBX 9 14 1 0
BITMAP
0E00
3980
0000
0000
4080
4080
4080
4080
8100
8100
8100
8100
4200
3C00
ENDCHAR

STARTCHAR udieresis
ENCODING 252
SWIDTH 608 0
DWIDTH 12 0
BBX 9 14 1 0
BITMAP
3300
3300
0000
0000
4080
4080
4080
4080
8080
8100
8100
8100
4200
3C00
ENDCHAR

STARTCHAR yacute
ENCODING 253
SWIDTH 536 0
DWIDTH 10 0
BBX 10 19 0 -4
BITMAP
0180
0300
0600
0000
0000
C040
4080
6180
2100
2300
3200
1400
1C00
1800
1800
1000
3000
6000
4000
ENDCHAR

STARTCHAR thorn
ENCODING 254
SWIDTH 682 0
DWIDTH 13 0
BBX 12 18 0 -4
BITMAP
1000
1000
1000
3000
37C0
2860
3030
2010
2010
2010
6030
6020
78C0
4F80
4000
4000
4000
C000
ENDCHAR

STARTCHAR ydieresis
ENCODING 255
SWIDTH 536 0
DWIDTH 10 0
BBX 10 18 0 -4
BITMAP
1980
1980
0000
0000
C040
4080
6180
2100
2300
3200
1400
1C00
1800
1800
1000
3000
6000
4000
ENDCHAR
ENDFONT
